<?xml version="1.0" encoding="utf-8"?>
<!-- Generator: Adobe Illustrator 25.4.1, SVG Export Plug-In . SVG Version: 6.00 Build 0)  -->
<svg version="1.1" id="Layer_1" xmlns="http://www.w3.org/2000/svg" xmlns:xlink="http://www.w3.org/1999/xlink" x="0px" y="0px"
	 viewBox="0 0 65.2 63.6" style="enable-background:new 0 0 65.2 63.6;" xml:space="preserve">
<style type="text/css">
	.st0{fill:#240A01;}
</style>
<path class="st0" d="M3,52.5c0,5,4,9,9,9h42c5,0,9-4,9-9s-4-9-9-9h-4.5l11.7-25c1.2-2.5,1.8-5.3,1.8-8c0-5-4-9-9-9H12c-5,0-9,4-9,9
	s4,9,9,9h4.5l-11.7,25C3.6,47,3,49.8,3,52.5z M54,45.5c3.9,0,7,3.1,7,7s-3.1,7-7,7s-7-3.1-7-7c0-2.4,0.5-4.8,1.5-7H54z M54,3.5
	c3.9,0,7,3.1,7,7c0,0.3,0,0.5,0,0.8c-0.4,3.8-3.9,6.6-7.7,6.2s-6.6-3.9-6.2-7.7C47.4,6.2,50.4,3.5,54,3.5z M12,17.5
	c-3.9,0-7-3.1-7-7s3.1-7,7-7h36.4c-3.9,3.1-4.5,8.8-1.4,12.6c0.4,0.5,0.9,1,1.4,1.4H12z M6.6,45.3l12.2-25.8H54
	c1.9,0,3.8-0.6,5.4-1.8v0L46.8,44.5c-1.2,2.5-1.8,5.3-1.8,8c0,2.7,1.2,5.3,3.4,7H12c-3.9,0-7-3.1-7-7C5,50.1,5.6,47.6,6.6,45.3z"/>
<path class="st0" d="M54,14.5c2.2,0,4-1.8,4-4s-1.8-4-4-4s-4,1.8-4,4S51.8,14.5,54,14.5z M54,8.5c1.1,0,2,0.9,2,2s-0.9,2-2,2
	s-2-0.9-2-2S52.9,8.5,54,8.5z"/>
<path class="st0" d="M54,56.5c2.2,0,4-1.8,4-4s-1.8-4-4-4s-4,1.8-4,4S51.8,56.5,54,56.5z M54,50.5c1.1,0,2,0.9,2,2s-0.9,2-2,2
	s-2-0.9-2-2S52.9,50.5,54,50.5z"/>
<path class="st0" d="M22,28.5h27c0.6,0,1-0.4,1-1s-0.4-1-1-1H22c-0.6,0-1,0.4-1,1S21.5,28.5,22,28.5z"/>
<path class="st0" d="M19,34.5h27c0.6,0,1-0.4,1-1s-0.4-1-1-1H19c-0.6,0-1,0.4-1,1S18.5,34.5,19,34.5z"/>
<path class="st0" d="M16,40.5h27c0.6,0,1-0.4,1-1s-0.4-1-1-1H16c-0.6,0-1,0.4-1,1S15.5,40.5,16,40.5z"/>
<path class="st0" d="M13,46.5h27c0.6,0,1-0.4,1-1s-0.4-1-1-1H13c-0.6,0-1,0.4-1,1S12.5,46.5,13,46.5z"/>
<path class="st0" d="M11,52.5h27c0.6,0,1-0.4,1-1s-0.4-1-1-1H11c-0.6,0-1,0.4-1,1S10.5,52.5,11,52.5z"/>
</svg>
