<?xml version="1.0" encoding="utf-8"?>
<!-- Generator: Adobe Illustrator 25.4.1, SVG Export Plug-In . SVG Version: 6.00 Build 0)  -->
<svg version="1.1" id="Layer_1" xmlns="http://www.w3.org/2000/svg" xmlns:xlink="http://www.w3.org/1999/xlink" x="0px" y="0px"
	 viewBox="0 0 62.9 65.3" style="enable-background:new 0 0 62.9 65.3;" xml:space="preserve">
<style type="text/css">
	.st0{fill:#240A01;}
	.st1{fill:#F90303;}
</style>
<path class="st0" d="M59.5,14.2v-3.6c0.6-0.7,1-1.7,1-2.6c0-2.2-1.8-4-4-4s-4,1.8-4,4c0,1,0.4,1.9,1,2.6V14h-3.2
	c-1.5,0-2.8,1.3-2.8,2.8c0,0.1,0,0.2-0.1,0.2c-0.1,0-0.1,0-0.2,0l-3.4-2.3c-0.7-0.4-1.4-0.7-2.2-0.7H36c-1.2,0-2.4,0.6-3.1,1.5
	l-1.1,1.4c-0.1,0.1-0.2,0.2-0.4,0.1c0,0-0.1-0.1-0.1-0.1l-1.1-1.4c-0.8-1-1.9-1.5-3.1-1.5h-5.6c-0.8,0-1.6,0.2-2.2,0.7L15.8,17
	c-0.1,0-0.1,0-0.2,0c-0.1,0-0.1-0.1-0.1-0.2c0-1.5-1.3-2.8-2.8-2.8H9.5v-3.4c0.6-0.7,1-1.7,1-2.6c0-2.2-1.8-4-4-4s-4,1.8-4,4
	c0,1,0.4,1.9,1,2.6v3.6c-1.2,0.4-2,1.5-2,2.8v34c0,1.3,0.8,2.4,2,2.8v3.6c-0.6,0.7-1,1.7-1,2.6c0,2.2,1.8,4,4,4s4-1.8,4-4
	c0-1-0.4-1.9-1-2.6V54h3.2c1.5,0,2.8-1.3,2.8-2.8c0-0.1,0-0.2,0.1-0.2c0.1,0,0.1,0,0.2,0l3.4,2.3c0.7,0.4,1.4,0.7,2.2,0.7H27
	c1.2,0,2.4-0.6,3.1-1.5l1.1-1.4c0.2-0.2,0.3-0.2,0.5,0l1.1,1.4c0.8,1,1.9,1.5,3.1,1.5h5.6c0.8,0,1.6-0.2,2.2-0.7l3.4-2.3
	c0.1,0,0.1,0,0.2,0c0.1,0,0.1,0.1,0.1,0.2c0,1.5,1.3,2.8,2.8,2.8h3.2v3.4c-0.6,0.7-1,1.7-1,2.6c0,2.2,1.8,4,4,4s4-1.8,4-4
	c0-1-0.4-1.9-1-2.6v-3.6c1.2-0.4,2-1.5,2-2.8V17C61.5,15.8,60.7,14.7,59.5,14.2z M56.5,6c1.1,0,2,0.9,2,2s-0.9,2-2,2s-2-0.9-2-2
	S55.4,6,56.5,6z M57.5,11.9V14h-2v-2.1C56.2,12.1,56.8,12.1,57.5,11.9z M6.5,6c1.1,0,2,0.9,2,2s-0.9,2-2,2s-2-0.9-2-2S5.4,6,6.5,6z
	 M7.5,11.9V14h-2v-2.1C5.8,12,6.2,12,6.5,12C6.8,12,7.2,12,7.5,11.9z M3.5,17c0-0.6,0.4-1,1-1h8.2c0.4,0,0.8,0.4,0.8,0.8
	c0,0.8,0.4,1.6,1.2,2c0.7,0.4,1.6,0.3,2.2-0.1l3.4-2.3c0.3-0.2,0.7-0.3,1.1-0.3h1.1v3c0,1.1-0.9,2-2,2c-2.2,0-4,1.8-4,4
	c0,1.1-0.9,2-2,2c-2.8,0-5,2.2-5,5c0,1.1-0.9,2-2,2h-4V17z M6.5,62c-1.1,0-2-0.9-2-2s0.9-2,2-2s2,0.9,2,2S7.6,62,6.5,62z M5.5,56.2
	V54h2v2.1c-0.3-0.1-0.7-0.1-1-0.1C6.2,56.1,5.8,56.1,5.5,56.2z M56.5,62c-1.1,0-2-0.9-2-2s0.9-2,2-2s2,0.9,2,2S57.6,62,56.5,62z
	 M55.5,56.2V54h2v2.1C56.8,56,56.2,56,55.5,56.2z M59.5,51c0,0.6-0.4,1-1,1h-8.2c-0.4,0-0.8-0.4-0.8-0.8l0,0c0-0.8-0.4-1.6-1.2-2
	c-0.7-0.4-1.6-0.3-2.2,0.1l-3.4,2.3C42.4,51.9,42,52,41.6,52h-1.8l0.8-3.8c0.4-1.9,2.1-3.2,4-3.2c2.3,0,4.2-1.3,5.7-3.7
	c0.6-1,1.5-1.9,2.6-2.4c1.6-0.8,2.8-2.3,3.2-4l0.5-1.8c0.4-1.5,1.5-2.6,3-3V51z M59.5,28.1c-2.4,0.4-4.4,2.2-4.9,4.6l-0.5,1.8
	c-0.3,1.2-1.1,2.1-2.2,2.7c-1.4,0.7-2.6,1.8-3.4,3.1c-1.1,1.8-2.4,2.7-3.9,2.7c-2.9,0-5.4,2-6,4.8L37.7,52H36
	c-0.6,0-1.2-0.3-1.6-0.8l-1.1-1.4c-0.8-1-2.3-1.1-3.3-0.3c-0.1,0.1-0.2,0.2-0.3,0.3l-1.1,1.4c-0.4,0.5-1,0.8-1.6,0.8h-5.6
	c-0.4,0-0.8-0.1-1.1-0.3l-3.4-2.3c-0.7-0.5-1.5-0.5-2.2-0.1c-0.7,0.4-1.2,1.1-1.2,2c0,0.4-0.4,0.8-0.8,0.8h0H4.5c-0.6,0-1-0.4-1-1
	V36h4c2.2,0,4-1.8,4-4c0-1.7,1.3-3,3-3c2.2,0,4-1.8,4-4c0-1.1,0.9-2,2-2c2.2,0,4-1.8,4-4v-3H27c0.6,0,1.2,0.3,1.6,0.8l1.1,1.4
	c0.9,1,2.4,1.1,3.3,0.2c0.1-0.1,0.2-0.2,0.2-0.2l1.1-1.4c0.4-0.5,1-0.8,1.6-0.8h5.6c0.4,0,0.8,0.1,1.1,0.3l3.4,2.3
	c0.7,0.5,1.5,0.5,2.2,0.1c0.7-0.4,1.2-1.1,1.2-2c0-0.4,0.4-0.8,0.8-0.8l0,0h8.2c0.6,0,1,0.4,1,1V28.1z"/>
<path class="st1" d="M49.2,24.3c-0.4-0.4-1-0.4-1.4,0l-1.3,1.3l-1.3-1.3c-0.4-0.4-1-0.4-1.4,0c-0.4,0.4-0.4,1,0,1.4l1.3,1.3
	l-1.3,1.3c-0.4,0.4-0.4,1,0,1.4c0.4,0.4,1,0.4,1.4,0c0,0,0,0,0,0l1.3-1.3l1.3,1.3c0.4,0.4,1,0.4,1.4,0c0.4-0.4,0.4-1,0-1.4L47.9,27
	l1.3-1.3C49.6,25.4,49.6,24.7,49.2,24.3z"/>
<path class="st1" d="M40.8,31.3l-1,1c-0.4,0.4-0.4,1,0,1.4c0.4,0.4,1,0.4,1.4,0c0,0,0,0,0,0l1-1c0.4-0.4,0.4-1,0-1.4
	C41.8,31,41.2,31,40.8,31.3z"/>
<path class="st1" d="M38.5,35c-0.6,0-1,0.4-1,1v1c0,0.6,0.4,1,1,1s1-0.4,1-1v-1C39.5,35.5,39.1,35,38.5,35z"/>
<path class="st1" d="M38.7,40.2c-0.5-0.3-1.1-0.1-1.4,0.4c-0.1,0.2-0.2,0.3-0.4,0.4c-0.5,0.3-0.6,0.9-0.3,1.4
	c0.3,0.4,0.9,0.6,1.3,0.4c0.5-0.3,0.8-0.6,1.1-1.1C39.4,41.1,39.2,40.5,38.7,40.2z"/>
<path class="st1" d="M33.5,41h-1c-0.6,0-1,0.4-1,1s0.4,1,1,1h1c0.6,0,1-0.4,1-1S34.1,41,33.5,41z"/>
<path class="st1" d="M29.5,40c0-0.6-0.4-1-1-1s-1,0.4-1,1c0,0.5,0.1,1,0.4,1.5c0.3,0.5,0.9,0.6,1.4,0.4c0.5-0.3,0.6-0.9,0.4-1.4
	C29.5,40.4,29.5,40.2,29.5,40z"/>
<path class="st1" d="M27.5,36c0,0.6,0.4,1,1,1s1-0.4,1-1v-1c0-0.6-0.4-1-1-1s-1,0.4-1,1V36z"/>
<path class="st1" d="M26.5,31h-1c-0.6,0-1,0.4-1,1s0.4,1,1,1h1c0.6,0,1-0.4,1-1S27.1,31,26.5,31z"/>
<path class="st1" d="M21.5,31h-1c-0.6,0-1,0.4-1,1s0.4,1,1,1h1c0.6,0,1-0.4,1-1S22.1,31,21.5,31z"/>
<path class="st1" d="M16.5,31h-1c-0.6,0-1,0.4-1,1s0.4,1,1,1h1c0.6,0,1-0.4,1-1S17.1,31,16.5,31z"/>
</svg>
